<?xml version="1.0" encoding="UTF-8" standalone="no"?>
<svg
   viewBox="0 0 312.5 317.62506613187"
   preserveAspectRatio="xMidYMid meet"
   class="css-8aabad"
   id="gccfdege"
   version="1.1"
   sodipodi:docname="logo.svg"
   inkscape:version="1.3.1 (91b66b0783, 2023-11-16, custom)"
   xmlns:inkscape="http://www.inkscape.org/namespaces/inkscape"
   xmlns:sodipodi="http://sodipodi.sourceforge.net/DTD/sodipodi-0.dtd"
   xmlns="http://www.w3.org/2000/svg"
   xmlns:svg="http://www.w3.org/2000/svg">
  <sodipodi:namedview
     id="namedview11"
     pagecolor="#ffffff"
     bordercolor="#666666"
     borderopacity="1.0"
     inkscape:showpageshadow="2"
     inkscape:pageopacity="0.0"
     inkscape:pagecheckerboard="0"
     inkscape:deskcolor="#d1d1d1"
     inkscape:zoom="1.3983744"
     inkscape:cx="15.732554"
     inkscape:cy="136.94473"
     inkscape:window-width="1920"
     inkscape:window-height="1055"
     inkscape:window-x="0"
     inkscape:window-y="0"
     inkscape:window-maximized="1"
     inkscape:current-layer="g10" />
  <defs
     id="SvgjsDefs1655">
    <rect
       x="28.631312"
       y="134.58344"
       width="234.31959"
       height="176.07356"
       id="rect12" />
    <linearGradient
       id="SvgjsLinearGradient1664">
      <stop
         id="SvgjsStop1665"
         stop-color="#8f5e25"
         offset="0" />
      <stop
         id="SvgjsStop1666"
         stop-color="#fbf4a1"
         offset="0.5" />
      <stop
         id="SvgjsStop1667"
         stop-color="#8f5e25"
         offset="1" />
    </linearGradient>
    <linearGradient
       id="SvgjsLinearGradient1668">
      <stop
         id="SvgjsStop1669"
         stop-color="#8f5e25"
         offset="0" />
      <stop
         id="SvgjsStop1670"
         stop-color="#fbf4a1"
         offset="0.5" />
      <stop
         id="SvgjsStop1671"
         stop-color="#8f5e25"
         offset="1" />
    </linearGradient>
    <linearGradient
       id="SvgjsLinearGradient1672">
      <stop
         id="SvgjsStop1673"
         stop-color="#8f5e25"
         offset="0" />
      <stop
         id="SvgjsStop1674"
         stop-color="#fbf4a1"
         offset="0.5" />
      <stop
         id="SvgjsStop1675"
         stop-color="#8f5e25"
         offset="1" />
    </linearGradient>
    <linearGradient
       id="SvgjsLinearGradient1676">
      <stop
         id="SvgjsStop1677"
         stop-color="#8f5e25"
         offset="0" />
      <stop
         id="SvgjsStop1678"
         stop-color="#fbf4a1"
         offset="0.5" />
      <stop
         id="SvgjsStop1679"
         stop-color="#8f5e25"
         offset="1" />
    </linearGradient>
  </defs>
  <g
     id="SvgjsG1656"
     featurekey="rootContainer"
     transform="matrix(1.67985200881958,0,0,1.67985200881958,0.0005863436150448467,0.0002893669821515722)"
     fill="#111"
     style="fill:#494949;fill-opacity:1">
    <path
       d="M17.914 148.907zM22.657 154.94a90.586 90.586 0 0 0 5.861 6.251c6.914 6.805 15.159 12.525 24.004 16.851 3.259 1.526 6.265 3.107 9.787 4.468.88.338 1.779.7 2.724 1.026.953.302 1.941.604 2.974.903 1.027.321 2.122.549 3.267.786 1.146.23 2.336.493 3.614.624a91.24 91.24 0 0 1-18.434-5.99 93.833 93.833 0 0 1-16.873-9.842c-10.548-7.727-19.57-17.648-26.16-28.989-.272-.339-.685-.985-1.18-1.808l-.796-1.348-.803-1.551c-.534-1.076-1.149-2.168-1.62-3.226a71.281 71.281 0 0 0-1.326-2.748c2.048 5.101 4.412 9.563 7.059 13.806a93.473 93.473 0 0 0 3.869 5.697c-.192-.259-.392-.511-.583-.771a95.012 95.012 0 0 0 4.6 5.841l.016.02zM18.039 149.078l-.125-.17.125.17zM1.335 106.042l-.483-3.875c.256 2.365.553 5.008 1.096 7.654l-.327-1.879a23.961 23.961 0 0 1-.286-1.9zM85.812 185.575c6.652.673 13.628.472 20.461-.609 6.837-1.077 13.524-2.987 19.741-5.449-11.45 4.503-23.602 6.506-35.49 6.171-1.591-.025-3.159 0-4.712-.113z"
       id="path1"
       style="fill:#494949;fill-opacity:1" />
    <path
       d="M46.426 171.967l-.259-.165c.087.055.172.111.259.165zM46.167 171.802zM43.653 170.135zM56.077 177.284A83.837 83.837 0 0 0 73.2 183.1c-9.688-2.21-18.805-6.109-26.774-11.133 3.06 1.947 6.277 3.749 9.651 5.317zM177.002 107.094c.098-1.58.296-3.238.346-4.027.594-5.071.77-9.401.745-13.745-.11-.783-.425-2.25-.55-3.918-.153-1.672-.378-3.309-.568-4.924-.289-1.601-.538-3.186-.854-4.74 2.275 11.617 2.237 23.279.144 34.282a94.97 94.97 0 0 1 .737-2.928z"
       id="path2"
       style="fill:#494949;fill-opacity:1" />
    <path
       d="M.887 83.482c.848-6.9 2.653-13.626 4.37-18.107l-.695 3.28c.429-.961 1.122-3.194 2.067-5.557l.682-1.802.753-1.747c.5-1.131.92-2.203 1.363-3.025-.303.771-.595 1.602-.947 2.436-.345.837-.732 1.687-1.101 2.542l1.514-3.409A111.863 111.863 0 0 0 4.954 69.8c-1.133 4.352-2.029 8.926-2.511 13.032-.14 1.024-.189 2.024-.28 2.978-.067.954-.183 1.864-.192 2.724-.042 1.719-.1 3.224-.071 4.428.105 2.409.25 3.61.459 2.939.411-1.333.403-8.188 1.837-16.767.767-4.276 1.868-8.966 3.362-13.561 1.483-4.599 3.427-9.058 5.44-12.992l-.592 1.292-.545 1.331-1.116 2.691-1.024 2.78-.521 1.402c-.153.476-.308.954-.461 1.434-1.32 3.807-2.307 7.816-3.167 11.857l-.559 3.052c-.205 1.014-.292 2.046-.444 3.067-.318 2.041-.434 4.097-.611 6.129-.199 4.074-.239 8.098.13 11.946-.015-.914-.03-1.726-.017-2.512l.115-2.355c.048-.809.039-1.667.115-2.65.07-.983.134-2.091.19-3.402.391-6.608 1.572-13.15 3.408-19.481 1.75-6.358 3.814-11.957 6.889-17.03l.801-1.526c.542-1.024.993-2.034 1.566-3.064.653-1.13 1.278-1.976 1.784-2.751.521-.767.963-1.441 1.469-2.095l3.682-5.082c.075-.009-.022.185-.2.473a28.962 28.962 0 0 1 1.959-2.49c.755-.875 1.488-1.803 2.109-2.569.146-.007.288-.011.623-.251 8.65-9.197 19.295-16.692 31.291-21.417l2.667-1.039 2.7-.899 1.343-.448 1.36-.38 2.71-.753c1.55-.373 3.12-.751 4.721-1.091l2.437-.426c.819-.141 1.642-.3 2.484-.378 1.674-.201 3.134-.625 3.921-.729 4.369-.249 8.73-.199 13.849.216.397.007 1.015.043 1.732.082.717.041 1.537.061 2.332.134.932.21 1.927.418 2.971.621 6.369.988 12.527 2.754 18.386 5.103l-.007-.028 2.244.894 2.29 1.058c1.571.684 3.11 1.559 4.7 2.383.798.407 1.554.904 2.338 1.354.77.474 1.576.894 2.32 1.412 1.508 1.002 3.037 1.961 4.446 3.032a99.912 99.912 0 0 1 6.6 5.198c.046.042.094.081.14.122l.042.038 1.457 1.322 1.394 1.391 1.395 1.392c.462.467.89.967 1.337 1.449-.216-.35-.208-.491-.2-.63-.689-.66-1.504-1.441-2.309-2.21 1.343 1.222 2.515 2.327 3.477 3.229.371.474.776.94 1.16 1.449l1.186 1.566 1.261 1.629 1.255 1.752c2.226 2.838 4.191 5.874 6.057 8.97.864 1.588 1.817 3.131 2.586 4.774l1.213 2.436 1.092 2.497c.314.533.192.022.231-.068 1.225 2.962 2.21 6.042 3.102 9.146a88.212 88.212 0 0 1 3.408 17.211c.225 1.378.321 2.772.52 4.153l-.123 2.924c-.001 1.103.057 2.206.01 3.311l-.128 3.326c-.016.75-.124 1.569-.187 2.459-.084.888-.128 1.846-.256 2.856l-.412 3.192c-.132 1.119-.387 2.269-.583 3.471a90.635 90.635 0 0 1-4.312 15.482c-.242.826-.427 1.486-.592 1.855-.627 1.501-1.296 2.954-1.942 4.385-.723 1.394-1.386 2.788-2.127 4.108a86.09 86.09 0 0 1-7.949 12.379c-.336.439-.649.885-.987 1.297l-.998 1.206c-.66.779-1.25 1.558-1.876 2.234-1.251 1.352-2.301 2.606-3.286 3.549-1.128 1.178-1.027 1.233-.246.665a35.07 35.07 0 0 0 1.608-1.262l2.122-1.914c.776-.677 1.519-1.441 2.235-2.161.708-.725 1.416-1.386 1.962-1.984 1.101-1.191 1.824-1.926 1.67-1.599-1.777 3.345-5.013 7.471-9.743 12.035-2.413 2.227-5.128 4.647-8.339 6.98-1.566 1.221-3.307 2.338-5.082 3.558-1.834 1.123-3.708 2.353-5.757 3.445-4.484 2.442 3.365-1.475 3.577-1.512a22.87 22.87 0 0 1-2.377 1.64c-1.478.786-2.943 1.597-4.474 2.273-.895.411-1.774.855-2.679 1.239l-2.729 1.122 1.444-.568c2.952-1.173 5.711-2.555 8.202-3.922-.936.566-1.96 1.221-3.082 1.812-1.203.622-2.448 1.302-3.697 1.909l-3.625 1.686c12.968-4.711 24.885-12.507 34.319-22.67 4.723-5.066 8.935-10.631 12.369-16.651a93.904 93.904 0 0 0 8.288-18.999c-3.154 9.93-8.071 19.052-13.981 26.765 10.744-14.507 17.15-32.293 17.999-50.636-.001 1.011-.101 2.018-.168 3.025-.083 1.007-.123 2.018-.241 3.022-.257 2.005-.441 4.021-.827 6.009-.624 4-1.636 7.931-2.782 11.815 2.262-7.021 3.613-14.424 4.145-21.869.554-7.451.092-14.947-1.057-22.211 1.974 9.622 2.301 20.524.619 31.298 1.182-6.949 1.482-14.112 1.028-21.214-.102-2.713-.422-5.407-.685-7.901-.377-2.476-.662-4.762-1.027-6.611 1.445 6.826 2.015 12.648 2.293 18.136-.267-11.977-2.748-24.112-7.62-35.511 2.659 6.191 4.842 12.851 6.175 19.698 1.34 6.84 1.897 13.838 1.58 20.57-.015-.788.018-1.575-.028-2.366l-.107-2.391c.287 10.85-1.384 21.604-4.696 31.717-1.662 5.056-3.715 9.969-6.2 14.644a95.521 95.521 0 0 1-8.56 13.316c3.673-4.29 7.551-10.354 10.646-17.015 3.081-6.675 5.368-13.894 6.941-20.199-2.314 11.322-6.907 22.494-13.571 32.471-6.646 9.985-15.351 18.764-25.423 25.502-10.06 6.759-21.474 11.437-33.187 13.748a94.608 94.608 0 0 1-17.657 1.809 94.462 94.462 0 0 1-17.361-1.515l3.005.571c1.002.19 2.018.295 3.026.445 2.016.324 4.055.446 6.087.633 4.073.229 8.168.306 12.25-.005 4.089-.217 8.152-.827 12.196-1.572 2.006-.456 4.036-.829 6.017-1.414.994-.278 2-.521 2.987-.83l2.955-.958c-1.492.462-3.062 1.074-4.739 1.523l-2.101.618a91.772 91.772 0 0 0 12.91-4.496 89.46 89.46 0 0 0 5.651-2.705 96.653 96.653 0 0 1-10.714 4.872 98.407 98.407 0 0 1-21.66 5.382c-1.11.176-2.122.231-3.029.326l-2.428.24c-1.429.113-2.484.164-3.222.245-1.477.147-1.687.284-1.099.397.587.113 1.971.203 3.673.251 1.697-.01 3.71-.101 5.541-.268 18.397-1.887 35.288-9.107 48.824-19.916 13.545-10.811 23.919-25.172 29.701-41.467.363-.946.642-1.922.944-2.89.293-.971.617-1.932.882-2.912.491-1.97 1.072-3.917 1.448-5.917l.619-2.985.487-3.012.241-1.507.172-1.517.342-3.034c.698-8.114.422-16.315-.812-24.363-.66-4.554-1.82-9.961-3.315-14.777l-1.15-3.484c-.4-1.107-.825-2.151-1.203-3.133l-.557-1.415-.571-1.271-.981-2.124c-3.134-6.359-7.072-12.424-11.682-18.065-4.605-5.643-9.896-10.868-15.861-15.418l-2.244-1.703-2.327-1.608-1.166-.806-1.203-.756-2.417-1.508c-3.295-1.904-6.67-3.739-10.228-5.261-3.521-1.598-7.206-2.895-10.957-4.055-1.895-.52-3.781-1.1-5.724-1.499-.968-.209-1.928-.463-2.907-.638l-2.944-.521C100.363.01 93.04-.285 85.724.265 78.412.83 71.069 2.218 64.028 4.614l-2.635.913c-.881.297-1.73.682-2.597 1.019-.858.359-1.735.673-2.577 1.069l-2.532 1.173c-.852.376-1.675.808-2.496 1.245l-2.469 1.297-2.402 1.412c-.8.472-1.606.933-2.372 1.458l-2.324 1.528c-.782.497-1.506 1.078-2.261 1.612-.741.554-1.51 1.07-2.226 1.654l-2.157 1.737c-.729.565-1.417 1.178-2.103 1.792l-2.063 1.83-1.971 1.919c-.656.639-1.319 1.271-1.93 1.951-5.031 5.298-9.451 11.078-13.066 17.194A99.518 99.518 0 0 0 5.18 64.379C.805 77.299-.45 90.402.134 102.237c-.126-4.872-.147-11.859.753-18.755zm141.132 90.446a96.807 96.807 0 0 0 8.765-6.389c-2.84 2.339-5.758 4.499-8.765 6.389zm40.217-54.282c-.299.901-.552 1.791-.882 2.641l-.957 2.523-.466 1.248-.513 1.231a108.54 108.54 0 0 0-.997 2.501 97.307 97.307 0 0 1-6.587 13.35c-2.521 4.275-5.443 8.281-8.565 12.04-1.542 1.899-3.222 3.66-4.874 5.421l-2.581 2.523c-.847.848-1.774 1.604-2.652 2.404-.736.64-1.478 1.266-2.225 1.882a90.696 90.696 0 0 0 7.896-7.312 89.808 89.808 0 0 1-11.689 10.188c-1.036.722-2.037 1.496-3.113 2.176l-3.247 2.069-3.43 1.949c-1.167.648-2.399 1.224-3.634 1.855a74.206 74.206 0 0 1 2.685-1.508c1.021-.567 2.092-1.237 3.138-1.85 1.054-.601 2.012-1.261 2.808-1.813.796-.552 1.42-1.01 1.745-1.306-.464.315-.936.617-1.406.924a92.477 92.477 0 0 0 1.507-1.015c-.021.023-.065.059-.101.091 10.932-7.466 20.245-17.277 27.223-28.462 7.009-11.175 11.57-23.781 13.46-36.601-.41 5.142-1.352 9.248-2.543 12.851zm-6.654-65.352zm-8.448-12.698a92.37 92.37 0 0 1 7.773 14.352c.25.549.486 1.106.719 1.664 4.963 12.154 7.221 25.192 6.89 38.036.084-4.25-.198-8.498-.669-12.71-.533-4.854-1.518-9.65-2.824-14.341-2.562-9.407-6.723-18.323-12.005-26.451.485.67.996 1.396 1.525 2.166a32.826 32.826 0 0 1 1.59 2.463l-.638-1.109-.689-1.079-1.378-2.156c-.938-1.424-1.955-2.796-2.934-4.192-1.062-1.334-2.069-2.712-3.174-4.011-.836-.953-1.637-1.938-2.485-2.879 2.992 3.155 5.801 6.54 8.299 10.247zM96.886 1.152c1.467.078 2.937.221 4.407.331 1.204.101 2.402.279 3.588.413.356.015.732.039 1.204.092.471.065 1.034.186 1.769.354 5.469.912 10.459 2.283 14.001 3.699 6.798 2.573 13.123 5.774 18.86 9.471 5.739 3.69 10.889 7.887 15.246 12.471 2.008 2.179 1.422 1.704.315.646l1.662 1.764c-.736-.734-1.459-1.478-2.206-2.196l-2.301-2.09c.56.49 1.918 1.663 2.845 2.522-7.389-7.539-16.026-13.799-25.375-18.404-9.356-4.603-19.431-7.446-29.502-8.581 1.618.18 2.412.22 3.168.24-1.085-.127-2.173-.301-3.274-.401-1.479-.097-2.955-.229-4.423-.301l-4.36-.103c1.444-.001 2.907.039 4.376.073z"
       id="path3"
       style="fill:#494949;fill-opacity:1" />
    <path
       d="M115.942 184.69l.426-.125c-.446.12-.885.252-1.334.366.304-.076.609-.15.908-.241zM160.424 146.151c4.235-5.587 7.977-12.263 10.366-18.014l-.029.006c-6.061 14.322-15.892 26.66-28.16 35.744a159.12 159.12 0 0 0 6.418-4.703c2.698-2.82 7.213-7.406 11.405-13.033zM35.35 162.846c7.172 6.412 15.821 11.992 25.448 15.751 3.754 1.413 7.585 2.651 11.503 3.523 1.944.502 3.929.812 5.899 1.181.987.175 1.987.272 2.979.412.994.129 1.986.275 2.987.333-4.519-.501-9.005-1.251-13.372-2.44-4.364-1.185-8.642-2.65-12.769-4.449a97.4 97.4 0 0 1-11.894-6.314c-3.786-2.408-7.376-5.097-10.781-7.997zM123.877 174.277l-2.219.871-2.266.756c-1.5.54-3.047.944-4.59 1.373 1.551-.39 3.111-.754 4.624-1.254l2.283-.698 2.23-.815c-.086-.044-.594.055-.062-.233zM97.683 179.965c-1.16.099-2.326.09-3.494.102-1.168.014-2.338.039-3.509-.038l1.576.148c.482.031.916.068 1.295.113 1.381-.118 2.752-.151 4.132-.325zM51.441 169.209c1.341.787 2.765 1.48 4.178 2.244.354.194.996.415 1.801.709-1.721-.739-3.37-1.655-5.046-2.505-.83-.441-1.629-.935-2.443-1.395-.812-.464-1.621-.927-2.389-1.445l.937.626.977.584 1.985 1.182z"
       id="path4"
       style="fill:#494949;fill-opacity:1" />
  </g>
  <g
     id="SvgjsG1657"
     featurekey="symbolFeature-0"
     transform="matrix(0.95349165,0,0,0.95349165,107.23214,122.81912)"
     fill="#111"
     style="fill:#494949;fill-opacity:1">
    <g
       id="g1"
       transform="matrix(1.5999999,0,0,1.5999999,-30.26851,-105.38907)">
      <g
         id="g5"
         style="fill:#494949;fill-opacity:1">
        <path
           d="m 35.2,59.7 c -5.3,0 -10.5,-2.1 -14.4,-6.1 -3.8,-3.9 -5.9,-9 -5.8,-14.4 0,-5.4 2.2,-10.5 6.1,-14.3 8,-7.8 20.8,-7.7 28.6,0.3 7.7,7.9 7.8,20.3 0.2,28.2 -0.1,0.1 -0.3,0.3 -0.4,0.4 -0.4,0.4 -1,0.4 -1.4,0 -0.4,-0.4 -0.4,-1 0,-1.4 0.1,-0.1 0.3,-0.3 0.4,-0.4 6.9,-7.2 6.8,-18.3 -0.1,-25.4 -7,-7.2 -18.6,-7.3 -25.8,-0.2 -3.5,3.4 -5.4,8 -5.5,12.9 0,4.9 1.8,9.5 5.2,13 4.9,5 12,6.7 18.6,4.6 0.5,-0.2 1.1,0.1 1.3,0.6 0.2,0.5 -0.1,1.1 -0.6,1.3 -2.2,0.6 -4.3,0.9 -6.4,0.9 z"
           id="path5"
           style="fill:#494949;fill-opacity:1" />
      </g>
      <g
         id="g6"
         style="fill:#494949;fill-opacity:1">
        <path
           d="m 38.6,68 c -0.4,0 -0.7,-0.2 -0.9,-0.6 -1.3,-2.7 -2.2,-5.7 -2.5,-8.7 -0.1,-0.5 0.3,-1 0.9,-1.1 0.6,-0.1 1,0.3 1.1,0.9 0.3,2.8 1.1,5.5 2.3,8 0.2,0.5 0,1.1 -0.5,1.3 C 38.9,68 38.7,68 38.6,68 Z"
           id="path6"
           style="fill:#494949;fill-opacity:1" />
      </g>
      <g
         id="g7"
         style="fill:#494949;fill-opacity:1">
        <path
           d="m 61.1,82.1 c -5.6,0 -10.9,-1.7 -15.3,-5 -0.4,-0.3 -0.5,-1 -0.2,-1.4 0.3,-0.4 0.9,-0.5 1.4,-0.2 4.1,3 9,4.6 14.1,4.6 13.2,0 24,-10.8 24,-24 0,-13.2 -10.8,-24 -24,-24 -2.6,0 -5.1,0.4 -7.5,1.2 -0.5,0.2 -1.1,-0.1 -1.3,-0.6 -0.2,-0.5 0.1,-1.1 0.6,-1.3 2.6,-0.9 5.4,-1.3 8.2,-1.3 14.3,0 26,11.7 26,26 0,14.3 -11.7,26 -26,26 z"
           id="path7"
           style="fill:#494949;fill-opacity:1" />
      </g>
      <g
         id="g8"
         style="fill:#494949;fill-opacity:1">
        <path
           d="m 49.5,62.7 c -3.9,0 -7.3,-2.6 -8.7,-4.4 -0.4,-0.4 -0.3,-1.1 0.1,-1.4 0.4,-0.4 1.1,-0.3 1.4,0.1 0.2,0.2 3.9,4.6 8.6,3.6 -1.4,-1.2 -3.3,-3.1 -3.6,-5.2 -0.2,-1 0.1,-2 0.8,-2.9 0.3,-0.4 1,-0.5 1.4,-0.1 0.4,0.4 0.5,1 0.1,1.4 -0.3,0.4 -0.4,0.8 -0.4,1.3 0.3,1.9 3.2,4.2 4.3,5 0.3,0.2 0.5,0.5 0.4,0.9 0,0.4 -0.2,0.7 -0.6,0.8 -1.2,0.6 -2.6,0.9 -3.8,0.9 z"
           id="path8"
           style="fill:#494949;fill-opacity:1" />
      </g>
      <g
         id="g9"
         style="fill:#494949;fill-opacity:1">
        <path
           d="m 38.4,79.2 c -2.9,0 -6.1,-0.8 -8.7,-3.6 -0.2,-0.3 -0.3,-0.6 -0.2,-1 0.1,-0.3 0.4,-0.6 0.7,-0.7 1.7,-0.3 6.2,-1.7 7.5,-3.9 0.4,-0.6 0.4,-1.2 0.2,-1.9 -0.2,-0.5 0.1,-1.1 0.7,-1.3 0.5,-0.2 1.1,0.1 1.3,0.7 0.4,1.2 0.3,2.4 -0.4,3.5 -1.4,2.3 -4.8,3.7 -7,4.4 5.4,4 13.3,0.1 13.4,0 0.5,-0.2 1.1,0 1.3,0.4 0.2,0.5 0,1.1 -0.4,1.3 -0.3,0.2 -4.1,2.1 -8.4,2.1 z"
           id="path9"
           style="fill:#494949;fill-opacity:1" />
      </g>
    </g>
  </g>
  <g
     id="SvgjsG1658"
     featurekey="nameFeature-0"
     transform="matrix(0.5470370054244995,0,0,0.5470370054244995,55.343555712908085,165.50774913425738)"
     fill="#111"
     style="fill:#484848;fill-opacity:0.99607843;image-rendering:auto">
    <g
       id="g10"
       transform="translate(-2.2617629,-16.515759)"
       style="fill:#484848;fill-opacity:0.99607843">
      <g
         id="g11"
         transform="translate(-4.7072476e-8,-8.9831779)"
         style="fill:#484848;fill-opacity:0.99607843">
        <g
           id="text1"
           style="font-size:58.497px;line-height:1.25;font-family:Sans;-inkscape-font-specification:'Sans, Normal';text-align:center;text-anchor:middle;fill-opacity:0.996078;stroke-width:1.82803"
           aria-label="Coaching&#10;by&#10;Kristina">
          <path
             d="m 90.710225,42.687227 q -6.727155,0 -10.587957,4.504269 -3.860802,4.504269 -3.860802,12.342868 0,7.780101 3.568317,12.342867 3.626814,4.504269 10.821945,4.504269 2.749359,0 5.206234,-0.467976 2.456874,-0.467976 4.796758,-1.16994 v 4.562766 q -2.339884,0.877455 -4.855255,1.286934 -2.456875,0.409479 -5.908198,0.409479 -6.376173,0 -10.646454,-2.632365 -4.270281,-2.632365 -6.43467,-7.487616 -2.105892,-4.855251 -2.105892,-11.406915 0,-6.317676 2.281383,-11.114431 2.33988,-4.855251 6.844149,-7.546113 4.504269,-2.749359 10.938939,-2.749359 6.610162,0 11.523908,2.456874 l -2.10589,4.445772 Q 98.256339,44.091155 95.857962,43.389191 93.518081,42.687227 90.710225,42.687227 Z M 136.33789,64.6821 q 0,7.780101 -3.9778,12.050382 -3.9193,4.270281 -10.64645,4.270281 -4.15329,0 -7.42912,-1.871904 -3.21734,-1.930401 -5.08924,-5.557215 -1.87191,-3.685311 -1.87191,-8.891544 0,-7.780101 3.9193,-11.991886 3.9193,-4.211784 10.64646,-4.211784 4.27028,0 7.48761,1.930401 3.27583,1.871904 5.08924,5.498719 1.87191,3.568317 1.87191,8.77455 z m -23.69129,0 q 0,5.557215 2.16439,8.833047 2.22289,3.217335 7.01964,3.217335 4.73826,0 6.96114,-3.217335 2.22289,-3.275832 2.22289,-8.833047 0,-5.557215 -2.22289,-8.716053 -2.22288,-3.158839 -7.01964,-3.158839 -4.79675,0 -6.96114,3.158839 -2.16439,3.158838 -2.16439,8.716053 z m 43.69723,-16.145173 q 5.73271,0 8.48207,2.515371 2.74936,2.515372 2.74936,8.01409 v 21.351405 h -3.74381 L 162.837,75.972021 h -0.23399 q -2.04739,2.573868 -4.32878,3.802305 -2.22288,1.228437 -6.20068,1.228437 -4.27028,0 -7.07813,-2.222886 -2.80786,-2.281383 -2.80786,-7.078137 0,-4.67976 3.68531,-7.195131 3.68531,-2.573868 11.34842,-2.807856 l 5.32323,-0.175491 v -1.871904 q 0,-3.919299 -1.69642,-5.440221 -1.69641,-1.520923 -4.79675,-1.520923 -2.45688,0 -4.67976,0.760462 -2.22289,0.701964 -4.15329,1.637916 l -1.57942,-3.860803 q 2.0474,-1.111443 4.85525,-1.871904 2.80786,-0.818958 5.8497,-0.818958 z m 1.52093,16.730143 q -5.8497,0.233988 -8.13109,1.871904 -2.22288,1.637916 -2.22288,4.621263 0,2.632365 1.57942,3.860802 1.63791,1.228437 4.15328,1.228437 3.9778,0 6.61016,-2.164389 2.63237,-2.222886 2.63237,-6.785652 v -2.807856 z m 31.9979,15.735693 q -4.15329,0 -7.42912,-1.696413 -3.21733,-1.696413 -5.08924,-5.26473 -1.8134,-3.568317 -1.8134,-9.125532 0,-5.791203 1.9304,-9.418017 1.9304,-3.626815 5.20623,-5.323228 3.33433,-1.696413 7.54611,-1.696413 2.39838,0 4.62127,0.526473 2.22288,0.467976 3.62681,1.16994 l -1.57942,4.270282 q -1.40393,-0.526473 -3.27583,-0.994449 -1.8719,-0.467976 -3.50982,-0.467976 -9.24253,0 -9.24253,11.874891 0,5.674209 2.22289,8.716053 2.28138,2.983347 6.72715,2.983347 2.57387,0 4.50427,-0.526473 1.9889,-0.526473 3.62682,-1.286934 v 4.562766 q -1.57942,0.818958 -3.50982,1.228437 -1.87191,0.467976 -4.56277,0.467976 z m 20.64942,-31.99786 q 0,2.33988 -0.29249,4.387276 h 0.35099 q 1.52092,-2.398378 4.09479,-3.626815 2.63236,-1.228437 5.67421,-1.228437 5.7327,0 8.59906,2.749359 2.86635,2.690863 2.86635,8.716054 v 20.415453 h -5.08924 V 60.353322 q 0,-7.546114 -7.01964,-7.546114 -5.26473,0 -7.25363,2.983348 -1.9304,2.92485 -1.9304,8.423568 v 16.203669 h -5.14774 V 35.960072 h 5.14774 z m 33.63578,-11.6994 q 1.16994,0 2.0474,0.818958 0.93595,0.760461 0.93595,2.456874 0,1.637916 -0.93595,2.456874 -0.87746,0.818958 -2.0474,0.818958 -1.28693,0 -2.16439,-0.818958 -0.87745,-0.818958 -0.87745,-2.456874 0,-1.696413 0.87745,-2.456874 0.87746,-0.818958 2.16439,-0.818958 z M 246.66323,49.0634 V 80.417793 H 241.5155 V 49.0634 Z m 25.03669,-0.58497 q 5.61571,0 8.48206,2.749359 2.86636,2.690863 2.86636,8.774551 V 80.417793 H 277.9591 V 60.353322 q 0,-7.546114 -7.01964,-7.546114 -5.20624,0 -7.19514,2.924851 -1.98889,2.92485 -1.98889,8.423568 v 16.262166 h -5.14774 V 49.0634 h 4.15329 l 0.76046,4.270282 h 0.29248 q 1.52093,-2.456875 4.21179,-3.626815 2.69086,-1.228437 5.67421,-1.228437 z m 32.17334,0 q 3.10034,0 5.55721,1.16994 2.51538,1.16994 4.27029,3.568318 h 0.29248 L 314.6952,49.0634 h 4.09479 v 31.880866 q 0,6.727155 -3.45132,10.119982 -3.39282,3.392826 -10.58796,3.392826 -6.90264,0 -11.28992,-1.988898 v -4.738258 q 4.62127,2.456875 11.58241,2.456875 4.03629,0 6.31768,-2.398378 2.33988,-2.33988 2.33988,-6.43467 v -1.228437 q 0,-0.701964 0.0585,-1.988898 0.0585,-1.345431 0.117,-1.871904 h -0.23399 q -3.15884,4.738257 -9.7105,4.738257 -6.08369,0 -9.53502,-4.270281 -3.39282,-4.270281 -3.39282,-11.933388 0,-7.487616 3.39282,-11.874892 3.45133,-4.445772 9.47652,-4.445772 z m 0.70196,4.328778 q -3.9193,0 -6.08368,3.158839 -2.16439,3.100341 -2.16439,8.891544 0,5.791203 2.10589,8.891544 2.16439,3.041844 6.25918,3.041844 4.73825,0 6.90264,-2.515371 2.16439,-2.573868 2.16439,-8.248077 v -1.228437 q 0,-6.43467 -2.22288,-9.184029 -2.22289,-2.807857 -6.96115,-2.807857 z"
             id="path13" />
          <path
             d="m 173.24948,119.90327 q 0,1.9889 -0.11699,3.74381 -0.0585,1.69641 -0.17549,2.69086 h 0.29248 q 1.34543,-1.9889 3.68531,-3.33433 2.33988,-1.34543 6.02519,-1.34543 5.84971,0 9.35953,4.09479 3.56831,4.03629 3.56831,12.10888 0,8.07259 -3.56831,12.16738 -3.56832,4.09479 -9.35953,4.09479 -3.68531,0 -6.02519,-1.34544 -2.33988,-1.34543 -3.68531,-3.21733 H 172.84 l -1.05294,3.9778 h -3.68531 v -44.45773 h 5.14773 z m 8.83305,6.02519 q -4.97225,0 -6.90265,2.86635 -1.9304,2.86636 -1.9304,8.89155 v 0.23399 q 0,5.7912 1.87191,8.89154 1.9304,3.04184 7.07813,3.04184 4.21179,0 6.25918,-3.10034 2.1059,-3.10034 2.1059,-8.95004 0,-11.87489 -8.48207,-11.87489 z m 15.91114,-3.74381 h 5.49872 l 6.78565,17.84159 q 0.87746,2.33988 1.57942,4.50427 0.70197,2.10589 1.05295,4.03629 h 0.23399 q 0.35098,-1.46242 1.11144,-3.8023 0.76046,-2.39838 1.57942,-4.79676 l 6.37617,-17.78309 h 5.55722 l -13.51281,35.68317 q -1.63792,4.44578 -4.27028,7.07814 -2.57387,2.63237 -7.13663,2.63237 -1.40393,0 -2.45688,-0.1755 -1.05295,-0.11699 -1.81341,-0.29248 v -4.09479 q 0.64347,0.11699 1.52093,0.23399 0.93595,0.11699 1.9304,0.11699 2.69086,0 4.32878,-1.52092 1.69641,-1.52092 2.63236,-4.03629 l 1.63792,-4.15329 z"
             id="path14" />
          <path
             d="m 127.32934,226.6603 h -6.20068 l -14.79974,-19.94748 -4.27029,3.74381 v 16.20367 h -5.264725 v -41.76686 h 5.264725 v 20.59094 q 1.75491,-1.9889 3.56832,-3.97779 1.81341,-1.9889 3.62682,-3.9778 l 11.28992,-12.63535 h 6.14218 l -16.55465,18.19257 z m 19.59646,-31.93937 q 0.87746,0 1.87191,0.117 1.05294,0.0585 1.81341,0.23399 l -0.64347,4.73825 q -0.76046,-0.17549 -1.69641,-0.29248 -0.87746,-0.117 -1.69642,-0.117 -2.39837,0 -4.50427,1.34544 -2.10589,1.28693 -3.39282,3.68531 -1.22844,2.33988 -1.22844,5.49871 v 16.73015 h -5.14774 v -31.3544 h 4.21179 l 0.58497,5.73271 h 0.23399 q 1.52092,-2.57387 3.9193,-4.44577 2.39837,-1.87191 5.6742,-1.87191 z m 12.16739,-11.17292 q 1.16994,0 2.04739,0.81896 0.93595,0.76046 0.93595,2.45687 0,1.63792 -0.93595,2.45687 -0.87745,0.81896 -2.04739,0.81896 -1.28694,0 -2.16439,-0.81896 -0.87746,-0.81895 -0.87746,-2.45687 0,-1.69641 0.87746,-2.45687 0.87745,-0.81896 2.16439,-0.81896 z m 2.51537,11.75789 v 31.3544 h -5.14774 v -31.3544 z m 30.35991,22.69684 q 0,4.56277 -3.39283,6.90265 -3.39282,2.33988 -9.12553,2.33988 -3.27583,0 -5.67421,-0.52648 -2.33988,-0.52647 -4.15329,-1.46242 v -4.67976 q 1.87191,0.93595 4.50427,1.75491 2.69087,0.76046 5.44022,0.76046 3.9193,0 5.67421,-1.22844 1.75491,-1.28693 1.75491,-3.39282 0,-1.16994 -0.64346,-2.10589 -0.64347,-0.93596 -2.33988,-1.87191 -1.63792,-0.93595 -4.73826,-2.10589 -3.04184,-1.16994 -5.20623,-2.33988 -2.16439,-1.16994 -3.33433,-2.80786 -1.16994,-1.63791 -1.16994,-4.21178 0,-3.9778 3.21733,-6.14219 3.27583,-2.16439 8.54056,-2.16439 2.86636,0 5.32323,0.58497 2.51537,0.52648 4.67976,1.52093 l -1.75491,4.09479 q -1.9889,-0.81896 -4.15329,-1.40393 -2.16438,-0.58497 -4.44577,-0.58497 -3.15884,0 -4.85525,1.05294 -1.63791,0.99445 -1.63791,2.74936 0,1.28694 0.76046,2.22289 0.76046,0.87745 2.51537,1.75491 1.8134,0.81896 4.79675,1.9889 2.98335,1.11144 5.08924,2.28138 2.10589,1.16994 3.21734,2.86635 1.11144,1.63792 1.11144,4.15329 z m 18.07557,5.03074 q 1.16994,0 2.39838,-0.17549 1.22844,-0.23399 1.9889,-0.46797 v 3.9193 q -0.81896,0.40947 -2.33988,0.64346 -1.52092,0.29249 -2.92485,0.29249 -2.45688,0 -4.56277,-0.81896 -2.04739,-0.87746 -3.33433,-2.98335 -1.28693,-2.10589 -1.28693,-5.90819 V 199.2837 h -4.44577 v -2.45687 l 4.50427,-2.0474 2.04739,-6.66866 h 3.04185 v 7.19513 h 9.06703 v 3.9778 h -9.06703 v 18.13407 q 0,2.86635 1.34543,4.27028 1.40393,1.34543 3.56831,1.34543 z m 13.27883,-39.48547 q 1.16994,0 2.04739,0.81896 0.93596,0.76046 0.93596,2.45687 0,1.63792 -0.93596,2.45687 -0.87745,0.81896 -2.04739,0.81896 -1.28693,0 -2.16439,-0.81896 -0.87745,-0.81895 -0.87745,-2.45687 0,-1.69641 0.87745,-2.45687 0.87746,-0.81896 2.16439,-0.81896 z m 2.51537,11.75789 v 31.3544 h -5.14774 v -31.3544 z m 25.03669,-0.58497 q 5.61571,0 8.48207,2.74936 2.86635,2.69087 2.86635,8.77455 v 20.41546 h -5.08924 v -20.06447 q 0,-7.54612 -7.01964,-7.54612 -5.20623,0 -7.19513,2.92485 -1.9889,2.92485 -1.9889,8.42357 v 16.26217 h -5.14773 v -31.3544 h 4.15328 l 0.76046,4.27029 h 0.29249 q 1.52092,-2.45688 4.21178,-3.62682 2.69087,-1.22844 5.67421,-1.22844 z m 32.93381,0.0585 q 5.7327,0 8.48206,2.51537 2.74936,2.51537 2.74936,8.01409 v 21.35141 h -3.74381 l -0.99445,-4.44577 h -0.23399 q -2.04739,2.57386 -4.32877,3.8023 -2.22289,1.22844 -6.20069,1.22844 -4.27028,0 -7.07813,-2.22289 -2.80786,-2.28138 -2.80786,-7.07814 0,-4.67976 3.68531,-7.19513 3.68531,-2.57387 11.34842,-2.80785 l 5.32323,-0.17549 v -1.87191 q 0,-3.9193 -1.69642,-5.44022 -1.69641,-1.52092 -4.79675,-1.52092 -2.45687,0 -4.67976,0.76046 -2.22289,0.70196 -4.15329,1.63792 l -1.57942,-3.86081 q 2.0474,-1.11144 4.85526,-1.8719 2.80785,-0.81896 5.8497,-0.81896 z m 1.52092,16.73014 q -5.8497,0.23399 -8.13109,1.87191 -2.22288,1.63791 -2.22288,4.62126 0,2.63237 1.57942,3.8608 1.63791,1.22844 4.15328,1.22844 3.9778,0 6.61017,-2.16439 2.63236,-2.22288 2.63236,-6.78565 v -2.80786 z"
             id="path15" />
        </g>
        <text
           xml:space="preserve"
           transform="matrix(1.8280299,0,0,1.8280299,-98.907911,-277.05418)"
           id="text12"
           style="font-style:normal;font-variant:normal;font-weight:normal;font-stretch:normal;font-size:40px;line-height:1.25;font-family:'Noto Sans';-inkscape-font-specification:'Noto Sans, Normal';font-variant-ligatures:normal;font-variant-caps:normal;font-variant-numeric:normal;font-variant-east-asian:normal;text-align:center;white-space:pre;shape-inside:url(#rect12);display:inline;fill:#000000;fill-opacity:1;stroke:none" />
      </g>
    </g>
  </g>
</svg>
